<?xml version="1.0" encoding="UTF-8" standalone="no"?>
<svg
   xmlns:dc="http://purl.org/dc/elements/1.1/"
   xmlns:cc="http://creativecommons.org/ns#"
   xmlns:rdf="http://www.w3.org/1999/02/22-rdf-syntax-ns#"
   xmlns:svg="http://www.w3.org/2000/svg"
   xmlns="http://www.w3.org/2000/svg"
   xmlns:sodipodi="http://sodipodi.sourceforge.net/DTD/sodipodi-0.dtd"
   xmlns:inkscape="http://www.inkscape.org/namespaces/inkscape"
   enable-background="new 0 0 64 64"
   height="64px"
   id="Layer_1"
   version="1.1"
   viewBox="0 0 64 64"
   width="64px"
   xml:space="preserve"
   inkscape:version="0.91 r13725"
   sodipodi:docname="icono_con_fondo.svg"><metadata
     id="metadata33"><rdf:RDF><cc:Work
         rdf:about=""><dc:format>image/svg+xml</dc:format><dc:type
           rdf:resource="http://purl.org/dc/dcmitype/StillImage" /><dc:title></dc:title></cc:Work></rdf:RDF></metadata><defs
     id="defs31" /><sodipodi:namedview
     pagecolor="#ffffff"
     bordercolor="#666666"
     borderopacity="1"
     objecttolerance="10"
     gridtolerance="10"
     guidetolerance="10"
     inkscape:pageopacity="0"
     inkscape:pageshadow="2"
     inkscape:window-width="1536"
     inkscape:window-height="801"
     id="namedview29"
     showgrid="false"
     inkscape:zoom="5.2149125"
     inkscape:cx="29.430686"
     inkscape:cy="31.433747"
     inkscape:window-x="-8"
     inkscape:window-y="-8"
     inkscape:window-maximized="1"
     inkscape:current-layer="layer2" /><g
     inkscape:groupmode="layer"
     id="layer2"
     inkscape:label="Layer 2"><rect
       style="display:inline;opacity:1;fill:#009688;fill-opacity:1;stroke:none;stroke-width:1;stroke-miterlimit:4;stroke-dasharray:none;stroke-opacity:1"
       id="rect3372"
       width="69.416313"
       height="69.416313"
       x="-1.9175777"
       y="-2.156431" /></g><g
     inkscape:groupmode="layer"
     id="layer1"
     inkscape:label="Layer 1"
     style="display:inline"><g
       id="g3344"><g
         id="g5"
         style="opacity:0.2"><circle
           id="circle7"
           r="5.0409999"
           cy="19.041"
           cx="35.064999"
           style="fill:#231f20" /></g><g
         id="g9"
         style="opacity:0.2"><path
           id="path11"
           d="m 18.502,53.951 c -0.958,0 -1.872,-0.553 -2.286,-1.485 -0.561,-1.262 0.008,-2.739 1.27,-3.3 10.656,-4.736 10.097,-10.136 10.086,-10.188 -0.168,-0.84 0.106,-1.708 0.727,-2.299 0.62,-0.592 1.5,-0.825 2.332,-0.616 0.537,0.134 13.173,3.422 14.833,15.035 0.195,1.367 -0.755,2.633 -2.122,2.829 -1.366,0.192 -2.633,-0.754 -2.829,-2.122 -0.782,-5.473 -5.359,-8.465 -8.387,-9.868 -0.964,3.254 -3.933,7.942 -12.61,11.799 -0.33,0.146 -0.675,0.215 -1.014,0.215 z"
           inkscape:connector-curvature="0"
           style="fill:#231f20" /></g><g
         id="g13"
         style="opacity:0.2"><path
           id="path15"
           d="m 21.381,39.547 c -1.381,0 -2.5,-1.119 -2.5,-2.5 0,-7.372 7.02,-10.49 10.731,-11.108 0.868,-0.147 1.744,0.176 2.313,0.844 0.209,0.241 5.341,6.039 11.456,2.982 1.236,-0.619 2.737,-0.117 3.354,1.118 0.618,1.235 0.117,2.737 -1.118,3.354 -6.816,3.409 -13.157,-0.041 -16.389,-3.058 -1.896,0.597 -5.348,2.188 -5.348,5.869 0.001,1.38 -1.118,2.499 -2.499,2.499 z"
           inkscape:connector-curvature="0"
           style="fill:#231f20" /></g><g
         id="g17"
         style="opacity:0.2"><path
           id="path19"
           d="m 31.465,41.488 c -1.191,0 -2.317,-0.714 -2.787,-1.887 -3.514,-8.785 0.226,-12.88 0.665,-13.318 l 4.242,4.242 c 0,0 0.049,-0.038 0.118,-0.127 -0.015,0.019 -1.453,1.978 0.546,6.975 0.615,1.539 -0.133,3.284 -1.671,3.9 -0.364,0.146 -0.742,0.215 -1.113,0.215 z"
           inkscape:connector-curvature="0"
           style="fill:#231f20" /></g><circle
         id="circle21"
         r="5.0409999"
         cy="16.041"
         cx="35.064999"
         style="fill:#ffffff" /><path
         id="path23"
         stroke-miterlimit="10"
         d="m 18.501,48.451 c 12.964,-5.762 11.523,-12.964 11.523,-12.964 0,0 11.523,2.881 12.964,12.964"
         inkscape:connector-curvature="0"
         style="fill:none;stroke:#ffffff;stroke-width:5;stroke-linecap:round;stroke-linejoin:round;stroke-miterlimit:10" /><path
         id="path25"
         stroke-miterlimit="10"
         d="m 44.501,29 c -8,4 -14.477,-3.596 -14.477,-3.596 0,0 -8.642,1.44 -8.643,8.643"
         inkscape:connector-curvature="0"
         style="fill:none;stroke:#ffffff;stroke-width:5;stroke-linecap:round;stroke-linejoin:round;stroke-miterlimit:10" /><path
         id="path27"
         stroke-miterlimit="10"
         d="m 31.464,25.404 c 0,0 -2.881,2.881 0,10.083"
         inkscape:connector-curvature="0"
         style="fill:none;stroke:#ffffff;stroke-width:6;stroke-linecap:round;stroke-linejoin:round;stroke-miterlimit:10" /></g></g></svg>